<?xml version="1.0" standalone="no"?>
<!DOCTYPE svg PUBLIC "-//W3C//DTD SVG 20010904//EN"
 "http://www.w3.org/TR/2001/REC-SVG-20010904/DTD/svg10.dtd">
<svg version="1.0" xmlns="http://www.w3.org/2000/svg"
 width="460.000000pt" height="460.000000pt" viewBox="0 0 460.000000 460.000000"
 preserveAspectRatio="xMidYMid meet">

<g transform="translate(0.000000,460.000000) scale(0.100000,-0.100000)"
fill="#000000" stroke="none">
<path d="M0 2300 l0 -2300 751 0 752 0 -7 46 c-3 26 -6 60 -6 76 0 16 -4 27
-9 23 -5 -3 -11 9 -13 27 l-4 33 -13 -30 c-7 -17 -10 -46 -7 -67 5 -30 3 -38
-9 -38 -19 0 -77 90 -70 108 2 7 1 11 -4 7 -5 -3 -12 25 -15 62 -3 38 -13 135
-22 216 -12 109 -14 179 -8 260 4 62 7 116 5 121 -9 34 -15 298 -9 376 10 118
30 188 76 265 67 112 180 244 196 228 3 -4 6 -19 6 -34 0 -32 15 -47 24 -24 6
15 -15 56 -86 174 -21 34 -38 65 -38 67 0 2 -14 27 -31 56 -55 92 -109 203
-115 239 -4 19 -11 39 -16 46 -5 7 -7 17 -3 23 4 6 2 16 -3 23 -9 11 -19 75
-21 133 -1 17 -9 23 -37 27 -49 8 -134 76 -161 129 -29 57 -43 127 -53 283 -5
72 -14 148 -19 170 -23 88 -8 200 32 243 29 31 41 28 91 -23 25 -25 42 -45 38
-45 -3 0 -1 -5 5 -11 7 -7 9 -32 6 -67 -4 -37 -3 -53 4 -49 7 4 13 -20 18 -68
4 -41 10 -75 15 -75 4 0 2 -25 -5 -55 -8 -34 -9 -55 -3 -55 5 0 8 -11 6 -24
-1 -13 3 -31 11 -40 9 -10 10 -16 2 -16 -15 0 -14 -29 3 -45 9 -9 16 -52 21
-125 4 -60 11 -110 16 -110 8 0 3 174 -6 217 -3 12 0 25 6 28 6 4 7 14 4 24
-4 9 -7 79 -7 156 0 192 12 289 37 299 12 4 13 11 4 33 -6 17 -9 88 -6 188 4
137 8 166 25 197 15 26 17 39 9 47 -8 8 -8 14 1 23 7 7 12 19 12 28 0 8 6 27
14 42 9 16 10 30 4 36 -5 5 -3 25 6 53 9 24 16 52 16 62 0 10 7 20 15 23 11 5
12 11 5 24 -7 12 -7 21 0 25 5 3 14 24 20 46 10 35 22 59 88 162 9 15 25 30
35 33 9 3 17 11 17 17 0 19 67 67 94 67 14 0 28 5 31 10 11 18 58 11 82 -12
21 -19 26 -20 34 -8 9 12 10 10 6 -8 -3 -12 -1 -20 4 -16 5 3 9 -2 9 -10 0 -9
4 -16 9 -16 6 0 8 17 6 38 -3 20 -2 28 1 18 4 -14 8 -15 14 -6 5 8 11 3 20
-17 7 -15 24 -37 38 -47 l25 -19 -7 29 -7 29 16 -23 c9 -13 24 -22 33 -20 10
2 26 -5 37 -15 16 -15 21 -16 30 -4 7 9 17 11 30 6 27 -11 37 -11 31 0 -3 5 4
12 17 15 21 7 22 7 2 17 -37 17 37 3 80 -16 36 -16 38 -16 25 0 -18 21 -23 55
-9 55 5 0 8 -4 5 -9 -3 -5 1 -12 10 -15 22 -8 26 -8 19 4 -3 6 1 7 9 4 9 -3
14 -10 11 -14 -3 -4 3 -11 12 -14 9 -4 20 -1 24 6 6 9 10 8 15 -5 3 -9 10 -14
15 -11 5 3 9 0 9 -5 0 -6 5 -11 11 -11 5 0 7 6 3 13 -4 6 2 3 14 -7 12 -11 38
-20 57 -21 20 -1 39 -5 42 -9 14 -14 24 -5 12 11 -12 15 -12 16 3 10 9 -3 19
-3 21 1 2 4 3 2 1 -4 -1 -6 6 -16 17 -22 15 -10 17 -9 12 5 -4 11 -3 14 5 9 7
-4 12 -15 13 -24 0 -14 2 -14 6 -2 12 29 28 38 41 23 7 -7 18 -11 24 -7 6 4
14 0 19 -7 6 -10 9 -11 9 -1 0 6 7 12 15 12 8 0 15 -6 15 -13 0 -8 18 4 41 25
23 22 43 37 46 34 3 -3 -2 -12 -11 -21 -9 -9 -16 -21 -16 -27 0 -12 32 12 63
47 18 20 18 20 14 -7 -4 -28 6 -38 18 -18 3 6 10 10 14 10 14 0 71 -60 71 -74
0 -8 10 -17 23 -20 32 -9 81 -57 96 -94 8 -18 16 -30 19 -28 6 6 32 -20 32
-32 0 -6 7 -13 16 -16 8 -3 13 -10 9 -16 -3 -5 2 -21 11 -35 9 -14 18 -33 19
-43 3 -39 18 -98 27 -109 5 -6 11 -55 14 -109 3 -53 10 -108 15 -121 12 -32
12 -93 0 -74 -12 19 -24 -4 -17 -34 3 -13 1 -27 -4 -30 -12 -8 -11 -85 2 -101
5 -7 8 -16 7 -20 -4 -25 2 -45 13 -38 8 5 9 -10 4 -59 -4 -41 -3 -68 4 -72 5
-3 10 -34 10 -68 0 -38 -4 -57 -9 -49 -12 19 -19 -12 -19 -85 0 -32 -4 -67 -8
-77 -6 -16 -4 -18 9 -13 12 5 17 1 17 -12 0 -11 -5 -21 -12 -23 -8 -3 -11 -27
-9 -74 2 -38 4 -136 4 -219 1 -139 -1 -156 -25 -226 -15 -42 -40 -99 -55 -125
-16 -27 -35 -61 -42 -76 -8 -16 -18 -28 -23 -28 -21 0 -5 -29 22 -40 40 -16
83 -67 118 -138 27 -54 42 -97 87 -242 9 -30 29 -84 45 -120 37 -85 60 -244
60 -410 0 -113 -3 -139 -24 -198 -40 -109 -55 -153 -76 -228 -30 -102 -89
-211 -145 -267 -11 -12 -12 -16 -2 -20 13 -4 -8 -48 -68 -142 -18 -27 -47 -77
-65 -110 -18 -33 -36 -64 -41 -70 -5 -5 -9 -13 -9 -17 0 -4 365 -8 810 -8
l810 0 0 2300 0 2300 -2300 0 -2300 0 0 -2300z m2375 1940 c3 -5 1 -10 -4 -10
-6 0 -11 5 -11 10 0 6 2 10 4 10 3 0 8 -4 11 -10z m1168 -1021 c23 -27 27 -40
27 -95 0 -64 -16 -161 -30 -179 -4 -5 -10 -39 -14 -75 -8 -70 -40 -191 -61
-224 -6 -12 -23 -50 -35 -86 -32 -91 -80 -138 -157 -155 l-33 -7 0 116 c0 102
2 118 19 135 24 24 51 75 51 96 0 11 -5 10 -22 -7 l-23 -23 -3 29 c-2 18 4 36
16 50 13 13 22 41 25 76 3 30 10 80 16 110 6 30 14 78 17 105 6 60 18 85 59
130 25 29 37 34 75 34 39 1 50 -4 73 -30z m-293 -316 c0 -10 -5 -25 -10 -33
-7 -11 -10 -7 -10 18 0 17 5 32 10 32 6 0 10 -8 10 -17z m-13 -175 c-3 -8 -6
-5 -6 6 -1 11 2 17 5 13 3 -3 4 -12 1 -19z m124 -2021 c-10 -9 -11 -8 -5 6 3
10 9 15 12 12 3 -3 0 -11 -7 -18z"/>
<path d="M3480 3175 c0 -8 4 -15 9 -15 5 0 8 -15 6 -32 -1 -18 -6 -69 -10
-113 -9 -106 -26 -167 -79 -287 -25 -57 -23 -74 5 -40 24 28 50 97 64 172 4
19 17 80 30 135 27 113 33 165 21 183 -10 17 -46 15 -46 -3z"/>
<path d="M1615 3250 c-3 -5 3 -10 15 -10 12 0 18 5 15 10 -3 6 -10 10 -15 10
-5 0 -12 -4 -15 -10z"/>
<path d="M1565 3241 l30 -7 -34 -7 c-48 -10 -31 -21 19 -12 34 6 39 9 29 21
-6 8 -26 13 -43 13 l-31 -1 30 -7z"/>
<path d="M2763 3243 c9 -2 25 -2 35 0 9 3 1 5 -18 5 -19 0 -27 -2 -17 -5z"/>
<path d="M2938 3240 c28 -12 28 -17 -3 -22 -13 -3 -22 -2 -20 2 6 10 -20 20
-48 19 -21 0 -21 -1 2 -10 13 -5 21 -12 18 -16 -4 -3 -19 -1 -34 5 -33 13
-155 14 -147 1 3 -5 -1 -9 -9 -9 -18 0 -75 -28 -82 -41 -4 -5 -1 -9 5 -9 6 0
9 -4 6 -8 -4 -8 127 11 167 24 10 3 23 1 30 -4 15 -12 30 -14 112 -16 57 -1
63 -3 48 -14 -16 -12 -14 -13 17 -7 19 4 42 13 51 21 8 8 21 14 28 14 7 0 11
6 8 14 -4 9 1 17 11 19 14 4 14 5 -2 6 -20 1 -20 1 0 17 18 14 16 15 -28 10
-29 -3 -48 -2 -48 4 0 6 -7 10 -16 10 -8 0 -12 -4 -9 -10 3 -5 -1 -10 -9 -10
-8 0 -18 5 -21 10 -3 6 -16 10 -28 9 l-22 0 23 -9z"/>
<path d="M1079 3207 c-2 -30 -4 -39 -13 -59 -5 -10 -5 -26 -1 -35 6 -16 8 -15
17 7 6 14 12 30 13 35 2 6 6 22 10 36 5 19 2 28 -9 32 -12 5 -16 0 -17 -16z"/>
<path d="M1730 3222 c8 -3 22 -13 30 -22 8 -9 24 -20 35 -25 26 -10 102 -16
86 -5 -27 16 85 22 122 6 10 -5 17 -4 17 3 0 6 -6 11 -14 11 -8 0 -16 4 -18
10 -1 5 -27 12 -56 15 -42 4 -52 3 -46 -7 6 -11 5 -10 -8 0 -9 7 -49 14 -89
16 -41 2 -67 1 -59 -2z"/>
<path d="M1620 3208 c-14 -6 -47 -13 -75 -15 -47 -4 -90 -23 -52 -23 9 0 17
-7 17 -15 0 -8 -6 -15 -14 -15 -8 0 -18 -5 -22 -12 -5 -8 0 -9 14 -6 14 4 22
1 22 -6 0 -8 -14 -11 -37 -9 -36 2 -37 2 -8 -6 46 -13 75 -12 73 2 -2 6 -7 15
-12 19 -6 4 -5 12 3 21 9 12 9 16 -1 21 -7 3 2 4 20 1 20 -3 31 -1 27 5 -11
18 10 10 28 -10 17 -20 47 -27 47 -11 0 5 -6 12 -12 14 -7 3 -2 6 12 7 25 2
25 2 -4 12 l-29 11 24 13 c29 16 14 17 -21 2z"/>
<path d="M1666 3201 c-17 -7 -18 -8 -3 -14 10 -4 14 -12 11 -22 -4 -10 0 -15
14 -15 27 0 37 17 15 23 -10 3 0 5 22 6 l40 2 -34 14 c-37 17 -38 17 -65 6z"/>
<path d="M1916 3169 c2 -4 22 -9 44 -11 22 -2 36 0 31 5 -10 10 -81 16 -75 6z"/>
<path d="M3108 3163 c6 -2 18 -2 25 0 6 3 1 5 -13 5 -14 0 -19 -2 -12 -5z"/>
<path d="M3070 3152 c-8 -3 -26 -13 -39 -23 -18 -15 -20 -19 -7 -19 9 0 15 -5
14 -12 -2 -7 11 -15 27 -19 17 -4 24 -7 16 -8 -24 -2 -2 -15 27 -16 17 0 27
-6 27 -15 1 -22 15 -41 26 -34 6 3 8 12 5 20 -3 7 -1 16 4 19 16 10 12 20 -12
31 -13 6 -17 9 -10 7 8 -2 20 4 28 11 12 13 8 16 -31 22 -39 5 -43 8 -29 19
16 11 15 13 -7 17 -14 2 -31 2 -39 0z m5 -22 c-3 -5 -12 -10 -18 -10 -7 0 -6
4 3 10 19 12 23 12 15 0z m58 -27 c-7 -2 -19 -2 -25 0 -7 3 -2 5 12 5 14 0 19
-2 13 -5z"/>
<path d="M1782 3110 c-114 -16 -172 -43 -172 -81 0 -10 -5 -21 -10 -24 -6 -4
-8 -11 -5 -16 4 -5 1 -9 -6 -9 -7 0 -10 -2 -7 -5 10 -11 40 8 48 30 7 17 14
21 34 18 15 -3 26 -1 26 6 0 6 9 11 20 11 11 0 20 6 20 14 0 7 6 19 14 25 12
10 16 8 22 -11 10 -33 21 -38 91 -38 60 0 62 0 68 31 4 17 13 33 21 36 19 7
56 -27 51 -47 -3 -12 4 -17 30 -18 45 -3 40 13 -15 53 -48 33 -116 40 -230 25z
m56 -32 c-4 -27 -28 -36 -28 -10 0 20 8 32 22 32 5 0 8 -10 6 -22z m77 11 c11
-17 0 -20 -21 -4 -17 13 -17 14 -2 15 9 0 20 -5 23 -11z m-20 -39 c4 -6 -7
-10 -24 -10 -17 0 -31 5 -31 10 0 6 11 10 24 10 14 0 28 -4 31 -10z"/>
<path d="M2634 3091 c-10 -11 -26 -21 -35 -21 -31 0 -49 -12 -49 -32 0 -16 6
-19 38 -16 25 2 36 7 34 17 -3 17 16 41 34 41 7 0 14 -12 16 -27 2 -23 8 -28
31 -28 15 1 27 -3 27 -7 0 -4 8 -8 18 -8 13 0 14 2 4 9 -11 7 -11 9 2 14 9 4
16 2 16 -3 0 -12 47 -12 75 0 11 5 14 9 8 9 -16 1 -17 21 -2 21 6 0 13 -9 16
-20 3 -11 12 -20 19 -20 8 0 17 -6 19 -12 4 -10 95 -23 95 -14 0 1 -11 17 -25
35 -38 53 -93 73 -217 79 -99 4 -107 3 -124 -17z m170 -22 c5 -5 7 -11 4 -15
-7 -6 -68 23 -68 32 0 8 53 -5 64 -17z m-84 -8 c0 -23 -16 -36 -25 -21 -9 14
1 40 15 40 5 0 10 -9 10 -19z"/>
<path d="M2970 2958 c0 -9 7 -22 17 -29 15 -13 15 -12 3 11 -17 34 -20 36 -20
18z"/>
<path d="M2178 2513 c7 -3 16 -2 19 1 4 3 -2 6 -13 5 -11 0 -14 -3 -6 -6z"/>
<path d="M2453 2513 c-18 -6 -16 -23 1 -23 17 0 30 16 19 23 -5 2 -14 2 -20 0z"/>
<path d="M1903 2203 c-16 -3 -23 -11 -23 -26 0 -35 156 -119 244 -132 91 -14
130 -17 191 -16 60 1 155 18 117 20 -8 1 -10 6 -5 14 4 6 -5 4 -20 -5 -30 -20
-149 -25 -201 -8 -17 5 -43 12 -58 15 -17 3 -28 13 -31 28 l-4 22 -8 -22 c-8
-26 -30 -30 -39 -8 -3 8 -12 12 -19 9 -8 -3 -17 2 -21 11 -3 9 -11 15 -18 14
-32 -4 -38 2 -38 40 0 37 1 38 30 35 17 -2 30 1 30 6 0 10 -83 12 -127 3z"/>
<path d="M2470 2190 c0 -5 7 -10 15 -10 8 0 15 5 15 10 0 6 -7 10 -15 10 -8 0
-15 -4 -15 -10z"/>
<path d="M2540 2182 c0 -8 6 -12 15 -9 21 9 1 -40 -30 -71 -21 -21 -27 -23
-41 -11 -13 10 -17 10 -25 -2 -13 -21 -11 -39 6 -39 8 0 15 4 15 9 0 8 42 20
87 24 12 1 21 7 20 12 -1 6 4 9 11 8 6 -2 12 2 12 7 0 6 5 10 10 10 19 0 55
40 44 49 -5 5 -35 13 -66 18 -49 8 -58 8 -58 -5z"/>
<path d="M3046 1917 c-3 -12 -1 -60 5 -106 18 -138 8 -231 -36 -331 -44 -99
-68 -173 -55 -165 6 4 10 11 10 17 0 6 19 50 41 97 56 116 87 217 100 328 11
101 1 145 -40 170 -16 10 -20 9 -25 -10z"/>
<path d="M1651 1624 c0 -11 3 -14 6 -6 3 7 2 16 -1 19 -3 4 -6 -2 -5 -13z"/>
<path d="M1592 1473 c-20 -70 -32 -145 -25 -155 3 -6 1 -8 -4 -5 -7 4 -11 -2
-10 -16 0 -12 -4 -31 -8 -41 -7 -15 -5 -18 7 -13 12 4 15 0 10 -16 -2 -12 -8
-26 -12 -32 -4 -5 -13 -33 -19 -61 -12 -48 -10 -57 13 -115 14 -35 32 -86 41
-113 18 -54 23 -60 75 -96 l35 -24 -23 25 c-12 14 -19 29 -15 34 5 4 2 5 -5 1
-10 -6 -11 -1 -6 18 4 17 2 26 -6 26 -6 0 -8 5 -5 11 10 15 6 266 -5 314 -5
23 -5 56 0 79 8 37 -3 147 -18 170 -3 6 -5 19 -4 29 5 31 -4 18 -16 -20z"/>
<path d="M1388 133 c12 -22 30 -38 37 -31 2 2 -8 14 -22 28 -24 23 -25 23 -15
3z"/>
</g>
</svg>
